<?xml version="1.0" standalone="no"?>
<!DOCTYPE svg PUBLIC "-//W3C//DTD SVG 20010904//EN"
 "http://www.w3.org/TR/2001/REC-SVG-20010904/DTD/svg10.dtd">
<svg version="1.0" xmlns="http://www.w3.org/2000/svg"
 width="555.000000pt" height="555.000000pt" viewBox="0 0 555.000000 555.000000"
 preserveAspectRatio="xMidYMid meet">
<metadata>
Created by potrace 1.14, written by Peter Selinger 2001-2017
</metadata>
<g transform="translate(0.000000,555.000000) scale(0.100000,-0.100000)"
fill="#000000" stroke="none">
<path d="M2549 5504 c-300 -54 -579 -271 -672 -522 -16 -43 -21 -81 -21 -157
-1 -90 2 -106 27 -157 85 -174 305 -243 503 -158 98 42 172 145 182 252 7 86
-14 132 -115 241 -125 135 -136 175 -68 254 53 63 120 87 235 87 113 0 193
-20 305 -74 100 -49 148 -88 196 -163 104 -161 165 -433 176 -782 10 -340 -32
-613 -127 -810 -51 -106 -97 -157 -173 -194 -176 -85 -348 -55 -500 88 -105
99 -201 251 -283 448 -21 51 -41 90 -45 85 -3 -4 -52 -108 -109 -232 -118
-259 -181 -380 -259 -500 -60 -92 -174 -218 -227 -251 l-34 -21 0 -123 0 -122
48 -44 c139 -127 285 -328 376 -519 55 -115 132 -328 156 -428 7 -30 16 -50
20 -45 5 4 40 80 80 168 39 87 87 185 106 216 99 163 238 226 479 217 94 -3
108 -6 178 -41 157 -78 241 -216 289 -480 20 -107 23 -155 23 -402 0 -230 -3
-298 -19 -380 -78 -424 -248 -666 -503 -720 -88 -19 -165 -19 -238 1 -107 27
-140 64 -139 153 1 66 20 107 99 210 71 94 85 120 92 182 5 42 1 58 -26 113
-38 78 -101 137 -191 180 -58 28 -75 31 -155 31 -111 0 -163 -22 -246 -104
-133 -134 -164 -341 -77 -521 22 -47 56 -89 117 -151 98 -98 198 -163 333
-218 319 -130 623 -126 913 13 344 165 602 507 691 916 26 119 26 400 1 518
-91 414 -343 689 -767 837 -170 59 -445 105 -625 105 -178 0 -278 113 -278
315 0 180 82 311 201 322 26 3 126 -5 222 -17 120 -15 199 -20 250 -15 296 24
518 121 701 304 285 288 390 726 287 1201 -39 183 -93 293 -212 432 -292 341
-782 534 -1177 462z"/>
</g>
</svg>
